Coordinates
version=1
nRows=6
nColumns=36
inDegrees=yes

Units are S.I. units (second, meters, Newtons, ...)
If the header above contains a line with 'inDegrees', this indicates whether rotational values are in degrees (yes) or radians (no).

endheader
time	pelvis_tilt	pelvis_list	pelvis_rotation	pelvis_tx	pelvis_ty	pelvis_tz	hip_flexion_r	hip_adduction_r	hip_rotation_r	knee_angle_r	knee_angle_r_beta	ankle_angle_r	subtalar_angle_r	mtp_angle_r	hip_flexion_l	hip_adduction_l	hip_rotation_l	knee_angle_l	knee_angle_l_beta	ankle_angle_l	subtalar_angle_l	mtp_angle_l	lumbar_extension	lumbar_bending	lumbar_rotation	arm_flex_r	arm_add_r	arm_rot_r	elbow_flex_r	pro_sup_r	arm_flex_l	arm_add_l	arm_rot_l	elbow_flex_l	pro_sup_l
      3.88333330	    -13.20047727	     -0.47179699	      0.52372692	      0.63181181	      0.80405314	     -0.05514040	     37.62617800	     -5.47301445	     -7.67768726	     61.25677610	      1.06913243	     34.36545247	    -10.73255404	     -7.49999987	     44.35168233	    -12.20685609	     -0.44293685	     62.86202327	      1.09714928	     27.57184290	     -8.73835449	     -7.49999987	     -3.28819522	      0.32911677	     -0.83735504	     26.64832197	    -11.49686877	     37.71487382	    145.95500691	     98.18758048	      8.07551638	    -21.61643994	     32.45615579	    100.74546056	    106.15266391
      3.90000000	    -12.76741983	     -0.42272384	      0.23345724	      0.62568483	      0.80665798	     -0.05214100	     37.86773292	     -5.67622154	     -7.77390944	     62.00399869	      1.08217393	     34.79066989	    -10.84742545	     -7.49999987	     44.54806307	    -12.26025230	     -0.50986687	     63.91403999	      1.11551044	     27.71315296	     -9.06407874	     -7.49999987	     -3.55083818	      0.38757509	     -0.87033397	     26.40259225	    -11.05409280	     37.88973693	    145.53269371	     98.20357181	      8.29899917	    -19.97428234	     32.66646290	    101.07179246	    106.18023377
      3.91666670	    -12.44140186	     -0.46251037	      0.08480664	      0.62088482	      0.81579104	     -0.05492582	     37.55074698	     -5.96354839	     -8.22279686	     61.44513525	      1.07241992	     34.97103564	    -10.04145330	     -7.49999987	     44.06682012	    -12.08318325	     -0.63131043	     63.29804693	      1.10475933	     27.36165542	     -9.75863544	     -7.49999987	     -3.13432221	      0.73777879	     -0.27315207	     25.49445407	    -11.29918018	     38.03909168	    144.75963396	     95.05021123	      8.60488934	    -17.43132010	     32.41828153	     99.83012469	    103.54050176
      3.93333330	    -11.70054798	     -0.47931352	     -0.18084044	      0.61813665	      0.82950291	     -0.05395859	     36.28127081	     -5.93923153	     -8.44744339	     59.81957988	      1.04404863	     34.03524508	    -10.04453136	     -7.49999987	     42.57031230	    -12.04641801	     -0.94733042	     61.85636841	      1.07959729	     26.06616602	    -10.27490522	     -7.49999987	     -3.55111760	      0.90468556	      0.19604865	     24.33821288	    -11.81302251	     38.68380139	    143.79963163	     92.85026843	      8.51643437	    -15.45462203	     32.71967136	     98.38143783	    101.57358627
      3.95000000	    -11.52739279	     -0.48515948	     -0.28530988	      0.60988453	      0.83083413	     -0.05280842	     35.66497405	     -5.90647975	     -8.70642558	     58.22304787	      1.01618389	     33.04320494	    -10.04031086	     -7.49999987	     41.70762655	    -11.93777362	     -1.29280926	     59.98522195	      1.04693963	     24.83174118	    -10.60291113	     -7.49999987	     -3.06787141	      1.05221028	      1.44285558	     23.39232383	    -12.34580411	     36.82532226	    143.28586995	     95.88031146	     10.19027704	    -14.18971331	     34.75033508	     97.62314070	    106.35906166
      3.96666670	    -11.36803634	     -0.52391559	     -0.30816207	      0.60491387	      0.84343741	     -0.05558881	     34.83709792	     -5.77789972	     -8.87089109	     56.10594962	      0.97923355	     31.74208497	    -10.15646936	     -7.49999987	     40.73404795	    -11.77309078	     -1.56065436	     57.82440430	      1.00922624	     23.21556775	    -11.07249821	     -7.49999987	     -3.00648251	      1.35868889	      1.44228604	     24.18887514	    -12.94606302	     36.17721218	    142.30693795	     96.55930186	     10.01249810	    -13.38974200	     34.40987815	     97.79302809	    107.54745020
